<svg xmlns="http://www.w3.org/2000/svg" viewBox="0 0 64 64" width="64" height="64">
  <defs>
    <linearGradient id="t" x1="0" y1="0" x2="1" y2="1"><stop offset="0" stop-color="#075dcc"/><stop offset="1" stop-color="#08172a"/></linearGradient>
    <linearGradient id="b" x1="0" y1="0" x2="0" y2="1"><stop offset="0" stop-color="#fff" stop-opacity=".30"/><stop offset=".35" stop-color="#fff" stop-opacity=".08"/><stop offset="1" stop-color="#000" stop-opacity=".28"/></linearGradient>
    <linearGradient id="p" x1="0" y1="1" x2="1" y2="0"><stop offset="0" stop-color="#f8fafc"/><stop offset=".55" stop-color="#e6fffb"/><stop offset="1" stop-color="#20c7b5"/></linearGradient>
    <linearGradient id="e" x1="0" y1="0" x2="0" y2="1"><stop offset="0" stop-color="#0b3f86"/><stop offset="1" stop-color="#041a34"/></linearGradient>
    <linearGradient id="g" x1="0" y1="0" x2="0" y2="1"><stop offset="0" stop-color="#fff" stop-opacity=".24"/><stop offset="1" stop-color="#fff" stop-opacity="0"/></linearGradient>
  </defs>
  <rect x="2" y="2" width="60" height="60" rx="15" fill="url(#t)"/>
  <rect x="2" y="2" width="60" height="60" rx="15" fill="url(#b)"/>
  <rect x="3" y="3" width="58" height="58" rx="14" fill="none" stroke="#fff" stroke-opacity=".22"/>
  <g transform="translate(0 3.2)" fill="url(#e)"><path d="M15 46 L15 20 L23 20 L23 46 Z"/><path d="M23 20 L31 20 L47 44 L47 46 L39 46 Z"/><path d="M41 46 L41 20 L49 20 L49 46 Z"/></g>
  <g fill="url(#p)"><path d="M15 46 L15 20 L23 20 L23 46 Z"/><path d="M23 20 L31 20 L47 44 L47 46 L39 46 Z"/><path d="M41 46 L41 20 L49 20 L49 46 Z"/></g>
  <path d="M17 2 H47 A15 15 0 0 1 62 17 V24 C50 30 14 30 2 24 V17 A15 15 0 0 1 17 2 Z" fill="url(#g)"/>
</svg>
